<svg width="16" height="16" viewBox="0 0 16 16" fill="none" xmlns="http://www.w3.org/2000/svg">
<path d="M1.88939 7.80201C1.52866 7.39692 1.24924 6.90992 1.06987 6.37368C0.890512 5.83743 0.815344 5.26433 0.849408 4.6928C0.88348 4.12127 1.026 3.56452 1.26741 3.05989C1.50882 2.55526 1.84355 2.11441 2.24915 1.7669C2.65474 1.41939 3.12183 1.17324 3.6191 1.04498C4.11637 0.91672 4.63231 0.909298 5.13233 1.02321C5.63237 1.13713 6.10492 1.36975 6.51831 1.70548C6.93171 2.04122 7.27639 2.47229 7.52924 2.96981H8.47072C8.7236 2.47229 9.06832 2.04122 9.48168 1.70548C9.89504 1.36975 10.3676 1.13713 10.8677 1.02321C11.3677 0.909298 11.8836 0.91672 12.3809 1.04498C12.8782 1.17324 13.3453 1.41939 13.7509 1.7669C14.1565 2.11441 14.4912 2.55526 14.7326 3.05989C14.974 3.56452 15.1166 4.12127 15.1506 4.6928C15.1846 5.26433 15.1095 5.83743 14.9302 6.37368C14.7507 6.90992 14.4714 7.39692 14.1106 7.80201L8 14.6641L1.88939 7.80295V7.80201ZM14.7052 8.47328C15.1365 7.98904 15.4738 7.40985 15.6961 6.77213C15.9183 6.13441 16.0206 5.45196 15.9966 4.76771C15.9725 4.08345 15.8226 3.41219 15.5562 2.79614C15.2898 2.18009 14.9128 1.63258 14.4489 1.18804C13.9849 0.743497 13.444 0.411548 12.8602 0.213067C12.2764 0.0145854 11.6624 -0.0461346 11.0566 0.0347253C10.451 0.115585 9.86672 0.336276 9.34072 0.682917C8.81464 1.02956 8.35816 1.49465 8 2.04895C7.64182 1.49465 7.18536 1.02956 6.65931 0.682917C6.13327 0.336276 5.54902 0.115585 4.94333 0.0347253C4.33762 -0.0461346 3.72357 0.0145854 3.13979 0.213067C2.55601 0.411548 2.01512 0.743497 1.55115 1.18804C1.08718 1.63258 0.710159 2.18009 0.443804 2.79614C0.177448 3.41219 0.0275189 4.08345 0.003445 4.76771C-0.0206288 5.45196 0.0816736 6.13441 0.303918 6.77213C0.526163 7.40985 0.863544 7.98904 1.29484 8.47328L8 16L14.7052 8.47422V8.47328Z" fill="#243F4D"/>
</svg>
